Coordinates
version=1
nRows=10
nColumns=33
inDegrees=yes

Units are S.I. units (second, meters, Newtons, ...)
Angles are in degrees.

endheader
time	ground_thorax_rot_x	ground_thorax_rot_y	ground_thorax_rot_z	ground_thorax_tx	ground_thorax_ty	ground_thorax_tz	clav_prot_r	clav_elev_r	scapula_abduction_r	scapula_elevation_r	scapula_upward_rot_r	scapula_winging_r	shoulder_elv_r	plane_of_elev_r	axial_rot_r	elbow_flexion_r	pro_sup_r	wrist_flex_r	wrist_dev_r	clav_prot_l	clav_elev_l	scapula_abduction_l	scapula_elevation_l	scapula_upward_rot_l	scapula_winging_l	shoulder_elv_l	plane_of_elev_l	axial_rot_l	elbow_flexion_l	pro_sup_l	wrist_flex_l	wrist_dev_l
      6.44000000	     -4.83413291	      4.11416170	     13.15576972	     -0.11466425	      1.02677470	      0.00692076	     14.11619940	    -16.60862897	     29.24885817	    -12.43829723	      9.66824216	     -5.16327203	    -10.00808239	    -59.80358136	    115.40125638	    -54.52045293	   -179.13828102	     15.64629093	     -2.52881804	     19.99999892	     -9.41849804	    -29.26249397	     -9.53162126	    -29.00515739	      7.66773063	     61.36664302	     -5.99353960	     14.39898040	     34.74721953	     10.71369947	     16.51374222	    -11.82480135
      6.45000000	     -4.58126717	      4.05267112	     13.16334067	     -0.11495824	      1.02647285	      0.00690978	     13.86757873	    -16.29117972	     28.67221741	    -12.04291274	      9.32851893	     -5.13021729	    -10.39053614	    -60.33059354	    115.43978922	    -55.33977888	   -179.32499770	     15.91625077	     -2.49427944	     19.79398821	     -9.07625580	    -28.95587379	    -10.02563344	    -29.38889550	      7.51498252	     61.03882824	     -6.23427855	     14.76388861	     36.09568100	     10.39350912	     16.47378350	    -12.02158916
      6.46000000	     -4.44994974	      4.00855271	     13.25283993	     -0.11533940	      1.02606478	      0.00700368	     13.68812044	    -16.01710725	     28.09872456	    -11.61689276	      8.80235528	     -5.08565288	    -10.92803600	    -60.85292695	    115.48221034	    -56.29549045	   -179.56045617	     16.27121836	     -2.45816804	     19.60194803	     -8.74272410	    -28.67425573	    -10.52922437	    -29.80822838	      7.36294876	     60.88685813	     -6.70064831	     14.87467126	     37.59643991	     10.03553009	     16.50461648	    -12.24133385
      6.47000000	     -4.66022553	      4.10438127	     13.36156472	     -0.11550036	      1.02701497	      0.00692728	     13.11124841	    -16.94513960	     26.56732459	    -12.12816175	      7.80275857	     -3.89320227	    -11.83374879	    -61.89995542	    114.96916470	    -57.20140691	   -182.55593124	     17.65056453	     -2.57353052	     19.29013116	     -8.73591023	    -28.15944543	    -10.67660283	    -30.07120063	      7.04651083	     61.27941963	     -7.93376468	     14.00819911	     39.23892807	      7.54150807	     16.96780850	    -11.37256032
      6.48000000	     -4.53299145	      4.04526239	     13.41045020	     -0.11596607	      1.02644500	      0.00712481	     12.95028062	    -16.58753548	     26.02492527	    -11.61493523	      7.26665551	     -3.91388038	    -12.35212806	    -62.35633432	    115.03869851	    -58.22379876	   -182.65916796	     17.95432156	     -2.50568144	     19.12510980	     -8.33239436	    -27.93101474	    -11.24293921	    -30.49042004	      6.93115789	     61.15750835	     -8.41011033	     14.00453348	     40.81755111	      7.24848572	     16.94508529	    -11.61439295
      6.49000000	     -4.38330402	      3.99135637	     13.54947243	     -0.11640395	      1.02609719	      0.00727468	     12.78584711	    -16.31272610	     25.42369004	    -11.13998369	      6.63415238	     -3.85949511	    -12.90965629	    -62.89044037	    114.98590375	    -59.16140962	   -182.79577438	     18.29612839	     -2.46376674	     18.92829775	     -8.02192112	    -27.64829664	    -11.76255445	    -30.98053546	      6.75526306	     61.03265368	     -9.02424109	     13.94186856	     42.50572208	      6.92076686	     16.96279403	    -11.84661741
      6.50000000	     -4.24782576	      3.92918040	     13.69115947	     -0.11683328	      1.02587236	      0.00746879	     12.61959911	    -16.11149616	     24.79262577	    -10.71077882	      5.95166079	     -3.74581622	    -13.51547091	    -63.47458922	    114.87191577	    -60.12219592	   -182.95809291	     18.68491703	     -2.43250280	     18.71860061	     -7.75682535	    -27.34380139	    -12.24704202	    -31.47832772	      6.55537377	     60.97380451	     -9.75016393	     13.80694486	     44.25143173	      6.57161009	     16.99888826	    -12.05470513
      6.51000000	     -4.10919616	      3.87704523	     13.79734421	     -0.11722502	      1.02573132	      0.00764774	     12.44394573	    -15.95080400	     24.13688868	    -10.30759878	      5.24769400	     -3.59504975	    -14.13391539	    -64.08221210	    114.69852927	    -61.08634252	   -183.12616944	     19.09439028	     -2.41299977	     18.48862327	     -7.52064772	    -27.00688539	    -12.70080940	    -31.96175850	      6.33732527	     60.94451029	    -10.51248674	     13.64837039	     46.03662474	      6.22989654	     17.03140414	    -12.24928210
      6.52000000	     -4.16033822	      3.94613821	     13.80992753	     -0.11738005	      1.02697788	      0.00774136	     12.05655798	    -16.89940704	     22.83224726	    -10.73914947	      4.04255383	     -2.51977319	    -15.12801541	    -65.15946051	    113.41754066	    -62.11733346	   -184.17850032	     20.10779963	     -2.56515806	     18.03577118	     -7.80958701	    -26.24143512	    -12.58231629	    -32.20122528	      5.87096393	     61.65220232	    -12.18661403	     12.47036236	     48.05161707	      5.26870051	     16.99877738	    -11.78036780
      6.53000000	     -4.00477583	      3.84492868	     13.79575044	     -0.11754170	      1.02667878	      0.00792060	     11.79316818	    -16.54055321	     22.18478123	    -10.24445099	      3.58941413	     -2.47896936	    -15.77806187	    -65.73769765	    113.47240870	    -63.05946342	   -184.23437645	     20.39708569	     -2.48205316	     17.77562697	     -7.35985462	    -25.85898987	    -13.19536839	    -32.60993359	      5.65325862	     61.40648082	    -12.70397250	     12.65192869	     49.75415025	      5.00803629	     16.93657026	    -12.01777313
